<svg width="64" height="14" viewBox="0 0 64 14" fill="none" xmlns="http://www.w3.org/2000/svg">
<rect y="3" width="15.7538" height="4" rx="1" fill="black"/>
<rect x="2.95386" y="8" width="9.84615" height="4" rx="1" fill="black"/>
<path d="M25.2585 11H17.1585L17.3865 9.416L21.3705 5.288H18.0945L17.8305 3.5H24.4425L24.2265 5.072L20.1825 9.212H23.2545V7.916L25.2585 7.688V11ZM29.0912 8.096V9.14H34.0112L34.2632 11H28.1912C27.9352 11 27.6952 10.924 27.4712 10.772C27.2552 10.62 27.1032 10.444 27.0152 10.244C26.9272 10.036 26.8832 9.848 26.8832 9.68V3.5H34.2632L34.0112 5.3H29.0912V6.44H33.0872V8.096H29.0912ZM43.8674 3.5V11H41.8634L41.7434 9.272L37.8194 5.924V11H35.7074V3.5H38.0234L41.7554 6.668V3.5H43.8674ZM50.1951 3.5C50.6911 3.5 51.1671 3.6 51.6231 3.8C52.0791 3.992 52.4751 4.26 52.8111 4.604C53.1551 4.948 53.4191 5.352 53.6031 5.816C53.7951 6.272 53.8911 6.748 53.8911 7.244C53.8911 7.74 53.7911 8.22 53.5911 8.684C53.3991 9.14 53.1271 9.544 52.7751 9.896C52.4311 10.24 52.0311 10.512 51.5751 10.712C51.1191 10.904 50.6431 11 50.1471 11H45.5511V3.5H50.1951ZM49.9791 9.128C50.5231 9.128 50.9591 8.948 51.2871 8.588C51.6151 8.22 51.7791 7.768 51.7791 7.232C51.7791 7.048 51.7511 6.848 51.6951 6.632C51.6391 6.416 51.5271 6.2 51.3591 5.984C51.1991 5.76 50.9911 5.592 50.7351 5.48C50.4871 5.36 50.2351 5.3 49.9791 5.3H47.7351V9.128H49.9791ZM61.5481 7.208C61.5481 6.68 61.3601 6.216 60.9841 5.816C60.6161 5.416 60.1761 5.216 59.6641 5.216H58.9561C58.6361 5.216 58.3201 5.308 58.0081 5.492C57.6961 5.668 57.4561 5.916 57.2881 6.236C57.1201 6.556 57.0361 6.88 57.0361 7.208C57.0361 7.536 57.1201 7.864 57.2881 8.192C57.4561 8.512 57.6961 8.764 58.0081 8.948C58.3201 9.132 58.6361 9.224 58.9561 9.224H59.6641C59.8481 9.224 60.0441 9.188 60.2521 9.116C60.4681 9.044 60.6681 8.924 60.8521 8.756C61.0441 8.58 61.2081 8.36 61.3441 8.096C61.4801 7.824 61.5481 7.528 61.5481 7.208ZM63.6121 7.208C63.6121 7.72 63.5121 8.216 63.3121 8.696C63.1201 9.176 62.8481 9.6 62.4961 9.968C62.1441 10.328 61.7321 10.612 61.2601 10.82C60.7961 11.02 60.3081 11.12 59.7961 11.12H58.7161C58.1961 11.12 57.7001 11.02 57.2281 10.82C56.7561 10.612 56.3401 10.332 55.9801 9.98C55.6281 9.62 55.3521 9.204 55.1521 8.732C54.9521 8.252 54.8521 7.752 54.8521 7.232C54.8521 6.712 54.9521 6.216 55.1521 5.744C55.3521 5.264 55.6281 4.844 55.9801 4.484C56.3401 4.116 56.7561 3.832 57.2281 3.632C57.7081 3.424 58.2041 3.32 58.7161 3.32H59.7961C60.3081 3.32 60.7961 3.424 61.2601 3.632C61.7321 3.832 62.1441 4.112 62.4961 4.472C62.8481 4.832 63.1201 5.252 63.3121 5.732C63.5121 6.204 63.6121 6.696 63.6121 7.208Z" fill="black"/>
</svg>
