<svg viewBox="0 0 68 12" xmlns="http://www.w3.org/2000/svg" fill="none"><path d="M63.759 3.32q.768 0 1.464.312a3.77 3.77 0 0 1 2.051 2.1q.3.708.3 1.476t-.3 1.488q-.287.72-.815 1.272-.528.54-1.236.852-.696.3-1.464.3h-1.08q-.78 0-1.489-.3a4.2 4.2 0 0 1-1.248-.84 4 4 0 0 1-.828-1.248q-.3-.72-.3-1.5t.3-1.488q.3-.72.828-1.26a3.8 3.8 0 0 1 1.248-.852q.72-.312 1.489-.312zm-35.57 1.752-4.044 4.14h3.072V7.916l2.004-.228V11h-8.1l.228-1.584 3.984-4.128h-3.276L21.793 3.5h6.612zm9.785.228h-4.92v1.14h3.996v1.656h-3.996V9.14h4.92l.252 1.86h-6.073a1.26 1.26 0 0 1-.72-.227 1.3 1.3 0 0 1-.456-.529 1.5 1.5 0 0 1-.131-.564V3.5h7.38zm7.744 1.368V3.5h2.112V11h-2.004l-.12-1.728-3.924-3.348V11H39.67V3.5h2.315zm8.44-3.168q.743 0 1.428.3.684.288 1.187.804.516.516.792 1.212a3.64 3.64 0 0 1-.011 2.868 3.8 3.8 0 0 1-.817 1.212 3.9 3.9 0 0 1-1.2.816A3.6 3.6 0 0 1 54.11 11h-4.595V3.5zm8.76 1.716q-.479 0-.947.276a1.8 1.8 0 0 0-.72.744q-.252.48-.253.972 0 .492.253.984.252.48.72.756t.948.276h.708q.276 0 .588-.108a1.7 1.7 0 0 0 .6-.36q.287-.264.492-.66.203-.408.204-.888a1.97 1.97 0 0 0-.565-1.392q-.552-.6-1.319-.6zm-11.22 3.912h2.243q.816 0 1.309-.54.492-.552.491-1.356 0-.276-.084-.6a1.8 1.8 0 0 0-.336-.648 1.5 1.5 0 0 0-.624-.504 1.7 1.7 0 0 0-.756-.18h-2.244zM14 5a1 1 0 0 1 1 1v1a1 1 0 0 1-1 1H6a1 1 0 0 1-1-1V6a1 1 0 0 1 1-1zm5-5a1 1 0 0 1 1 1v1a1 1 0 0 1-1 1H1a1 1 0 0 1-1-1V1a1 1 0 0 1 1-1z" fill="#fff"/></svg>