<svg fill="#6467f2" width="256" height="256" viewBox="0 0 24 24" xmlns="http://www.w3.org/2000/svg" stroke="#fff" stroke-width="0"><g/><g stroke-linecap="round" stroke-linejoin="round" stroke="#CCC" stroke-width=".288"/><path d="M12 2c-4.962 0-9 4.038-9 9v8h.051c.245 1.692 1.69 3 3.449 3 1.174 0 2.074-.417 2.672-1.174a3.99 3.99 0 0 0 5.668-.014c.601.762 1.504 1.188 2.66 1.188 1.93 0 3.5-1.57 3.5-3.5V11c0-4.962-4.037-9-9-9M9 14c-1.103 0-2-.897-2-2s.897-2 2-2 2 .897 2 2-.897 2-2 2m6-4c1.103 0 2 .897 2 2s-.897 2-2 2-2-.897-2-2 .897-2 2-2M3 19c0 2 1.5 3.5 3.5 3.5S10 21 10 19z" stroke="none"/></svg>